# xmcd CD database file
#
# Track frame offsets:
#	150
#	19927
#	40513
#	85026
#	106852
#	135452
#	168377
#	198453
#	221263
#	241368
#	270938
#
# Disc length: 3947 seconds
#
# Revision: 2
# Processed by: cddbd v1.5.1PL0 Copyright (c) Steve Scherf et al.
# Submitted via: CDex 1.50
#
DISCID=830f690b
DTITLE=Junior Kimbrough And The Soul Blues Boys - Sad Days, Lonely Nights
DYEAR=1900
DGENRE=Blues
TTITLE0=Sad Days, Lonely Nights
TTITLE1=Lonesome In My Home
TTITLE2=Lord, Have Mercy On Me
TTITLE3=Crawling King Snake
TTITLE4=My Mind Is Rambling
TTITLE5=Leaving In The Morning
TTITLE6=Old Black Mattie
TTITLE7=I'm In Love
TTITLE8=Pull Your Clothes Off
TTITLE9=I'm Gonna Have To Leave Here
TTITLE10=Sad Days, Lonely Nights
EXTD=
EXTT0=
EXTT1=
EXTT2=
EXTT3=
EXTT4=
EXTT5=
EXTT6=
EXTT7=
EXTT8=
EXTT9=
EXTT10=
PLAYORDER=
